<?xml version="1.0" standalone="no"?>
<!DOCTYPE svg PUBLIC "-//W3C//DTD SVG 20010904//EN"
 "http://www.w3.org/TR/2001/REC-SVG-20010904/DTD/svg10.dtd">
<svg version="1.0" xmlns="http://www.w3.org/2000/svg"
 width="1000.000000pt" height="1000.000000pt" viewBox="0 0 1000.000000 1000.000000"
 preserveAspectRatio="xMidYMid meet">
<metadata>
Created by potrace 1.14, written by Peter Selinger 2001-2017
</metadata>
<g transform="translate(0.000000,1000.000000) scale(0.100000,-0.100000)"
fill="#000000" stroke="none">
<path d="M4713 7533 l287 -288 287 288 288 287 -575 0 -575 0 288 -287z"/>
<path d="M2980 6137 l0 -1677 213 0 212 0 98 98 97 97 0 1275 0 1275 -117 114
c-65 62 -205 199 -310 304 l-193 191 0 -1677z"/>
<path d="M6708 7506 l-308 -303 0 -1371 0 -1372 310 0 310 0 0 1675 c0 921 -1
1675 -2 1675 -2 -1 -141 -137 -310 -304z"/>
<path d="M3830 5985 l0 -970 310 310 310 310 0 350 0 350 -310 310 -310 310 0
-970z"/>
<path d="M5857 6522 l-307 -307 0 -878 0 -877 308 0 308 0 1 1185 c1 652 1
1185 0 1185 -1 0 -140 -138 -310 -308z"/>
<path d="M4050 4859 l-405 -399 410 0 410 0 0 394 c0 217 -2 397 -5 399 -3 3
-187 -175 -410 -394z"/>
<path d="M3477 3753 c-4 -3 -7 -48 -7 -100 l0 -93 35 0 35 0 0 100 0 100 -28
0 c-16 0 -32 -3 -35 -7z"/>
<path d="M1561 3722 c-67 -36 -91 -133 -51 -200 20 -33 47 -48 152 -86 89 -33
116 -109 59 -167 -24 -24 -38 -29 -76 -29 -26 0 -62 7 -81 16 -30 14 -34 21
-34 55 0 37 -2 39 -30 39 l-31 0 3 -57 3 -57 57 -30 c143 -73 283 -9 282 129
0 91 -31 124 -153 166 -86 30 -101 43 -101 90 0 52 34 89 84 89 51 0 86 -16
86 -40 0 -16 7 -20 30 -20 28 0 30 2 30 40 0 38 -3 42 -42 60 -56 25 -142 26
-187 2z"/>
<path d="M4350 3710 c0 -23 4 -30 20 -30 19 0 20 -7 20 -220 0 -213 -1 -220
-20 -220 -16 0 -20 -7 -20 -30 l0 -30 200 0 200 0 0 60 c0 60 0 60 -29 60 -25
0 -30 -4 -33 -27 l-3 -28 -112 -3 -113 -3 0 96 0 95 125 0 125 0 0 30 0 30
-125 0 -125 0 0 95 0 95 105 0 c77 0 105 -3 106 -12 1 -7 2 -20 3 -28 0 -9 13
-16 34 -18 l32 -3 0 60 0 61 -195 0 -195 0 0 -30z"/>
<path d="M3189 3653 c0 -10 0 -53 0 -95 l1 -78 -35 0 c-32 0 -35 -2 -35 -29 0
-26 4 -30 33 -33 l32 -3 2 -105 c1 -58 2 -111 2 -117 1 -9 20 -13 61 -13 l60
0 0 30 c0 27 -3 30 -30 30 l-31 0 3 88 3 87 38 3 c34 3 37 6 37 33 0 27 -2 29
-40 29 l-40 0 0 95 0 95 -30 0 c-22 0 -30 -5 -31 -17z"/>
<path d="M7090 3626 c-19 -23 -8 -61 18 -64 44 -7 67 32 36 62 -19 20 -38 20
-54 2z"/>
<path d="M2770 3468 c-57 -29 -90 -78 -90 -132 0 -116 111 -193 215 -147 l46
20 -18 25 c-11 16 -24 23 -33 19 -33 -14 -86 -14 -105 1 -11 8 -17 17 -14 20
3 3 51 23 107 44 l102 38 -23 44 c-41 82 -111 107 -187 68z m110 -63 c10 -12
10 -16 -1 -19 -8 -3 -39 -14 -69 -26 -66 -24 -60 -24 -60 -1 0 46 100 82 130
46z"/>
<path d="M3765 3483 c-38 -9 -65 -44 -65 -83 0 -47 17 -69 71 -90 35 -14 44
-23 44 -41 0 -20 -6 -25 -31 -27 -25 -2 -33 1 -37 17 -3 15 -13 21 -31 21 -24
0 -26 -4 -26 -39 0 -44 6 -50 59 -62 53 -12 108 5 126 41 32 62 12 107 -66
144 -50 24 -58 49 -16 54 22 3 27 -1 27 -18 0 -17 5 -21 28 -18 23 3 27 8 30
38 2 25 -2 38 -15 46 -24 15 -73 23 -98 17z"/>
<path d="M5090 3475 c-19 -9 -45 -28 -57 -43 l-23 -27 0 38 0 37 -55 0 c-54 0
-55 0 -55 -30 0 -25 4 -30 25 -30 25 0 25 -1 25 -90 l0 -90 -30 0 c-27 0 -30
-3 -30 -30 l0 -30 89 0 90 0 -1 30 c-1 24 -5 30 -24 30 -28 0 -35 20 -29 80 6
57 48 100 99 100 51 0 66 -24 66 -108 l0 -72 -30 0 c-27 0 -30 -3 -30 -30 l0
-30 90 0 90 0 0 30 c0 25 -4 30 -25 30 -24 0 -25 3 -25 61 0 54 3 64 29 90 21
21 39 29 64 29 52 0 67 -24 67 -108 l0 -72 -30 0 c-27 0 -30 -3 -30 -30 l0
-30 90 0 90 0 0 30 c0 25 -4 30 -24 30 -23 0 -24 2 -28 94 -3 83 -6 98 -26
119 -13 14 -35 28 -48 31 -38 10 -105 -13 -136 -46 -17 -18 -28 -24 -28 -16 0
23 -42 56 -80 62 -21 4 -49 0 -70 -9z"/>
<path d="M5847 3480 c-16 -5 -34 -14 -41 -20 -10 -8 -15 -7 -20 5 -4 11 -20
15 -61 15 -54 0 -55 0 -55 -30 0 -27 3 -30 30 -30 l30 0 0 -190 0 -190 -25 0
c-21 0 -25 -5 -25 -30 l0 -30 85 0 85 0 0 30 c0 25 -4 30 -25 30 -25 0 -25 1
-25 79 l0 79 41 -14 c141 -49 266 114 180 235 -37 52 -115 79 -174 61z m108
-85 c19 -18 25 -35 25 -65 0 -56 -34 -90 -90 -90 -56 0 -90 34 -90 90 0 56 34
90 90 90 30 0 47 -6 65 -25z"/>
<path d="M6297 3476 c-71 -26 -107 -76 -107 -149 0 -87 90 -165 175 -152 80
12 145 81 145 155 0 14 -9 43 -19 66 -32 71 -120 107 -194 80z m114 -85 c20
-20 29 -39 29 -61 0 -43 -47 -90 -90 -90 -44 0 -69 16 -86 56 -12 29 -12 39 0
68 27 64 97 77 147 27z"/>
<path d="M6840 3469 c-19 -12 -43 -31 -52 -42 -17 -22 -18 -22 -18 16 l0 37
-55 0 c-54 0 -55 0 -55 -30 0 -25 4 -30 25 -30 25 0 25 -1 25 -90 l0 -90 -30
0 c-27 0 -30 -3 -30 -30 l0 -30 89 0 90 0 -1 30 c-1 24 -5 30 -24 30 -28 0
-35 20 -29 80 3 34 12 52 35 73 17 15 39 27 49 27 12 0 21 10 25 26 10 39 -5
46 -44 23z"/>
<path d="M8080 3475 c-19 -9 -45 -28 -57 -43 l-23 -27 0 38 0 37 -55 0 c-54 0
-55 0 -55 -30 0 -25 4 -30 25 -30 25 0 25 -1 25 -90 l0 -90 -30 0 c-27 0 -30
-3 -30 -30 l0 -30 89 0 90 0 -1 30 c-1 24 -5 30 -24 30 -28 0 -35 20 -29 80 6
57 48 100 99 100 51 0 66 -24 66 -108 l0 -72 -30 0 c-27 0 -30 -3 -30 -30 l0
-30 90 0 90 0 0 30 c0 25 -4 30 -25 30 -24 0 -25 3 -25 61 0 54 3 64 29 90 21
21 39 29 64 29 52 0 67 -24 67 -108 l0 -72 -30 0 c-27 0 -30 -3 -30 -30 l0
-30 90 0 90 0 0 30 c0 25 -4 30 -24 30 -23 0 -24 2 -28 94 -3 83 -6 98 -26
119 -13 14 -35 28 -48 31 -38 10 -105 -13 -136 -46 -17 -18 -28 -24 -28 -16 0
23 -42 56 -80 62 -21 4 -49 0 -70 -9z"/>
<path d="M1940 3450 c0 -28 3 -30 35 -30 35 0 35 -1 97 -125 35 -69 65 -125
68 -125 3 0 27 43 53 95 27 52 52 95 56 95 3 0 28 -43 54 -96 27 -53 51 -93
55 -89 4 3 34 59 67 123 56 110 62 117 93 120 28 3 32 7 32 33 l0 29 -85 0
-85 0 0 -30 c0 -23 5 -30 19 -30 18 0 17 -5 -11 -69 l-31 -69 -29 60 c-33 71
-34 78 -8 78 16 0 20 7 20 30 l0 30 -90 0 -90 0 0 -30 c0 -25 4 -30 25 -30 33
0 31 -13 -8 -82 l-33 -57 -33 67 c-20 40 -29 68 -22 70 6 2 11 17 11 33 l0 29
-80 0 -80 0 0 -30z"/>
<path d="M7030 3450 c0 -25 4 -30 25 -30 25 0 25 -1 25 -90 0 -89 0 -90 -25
-90 -21 0 -25 -5 -25 -30 l0 -30 89 0 90 0 -1 30 c-1 26 -5 30 -30 30 l-28 0
0 120 0 120 -60 0 -60 0 0 -30z"/>
<path d="M7340 3450 c0 -25 4 -30 25 -30 25 0 25 -1 25 -85 0 -107 15 -140 69
-156 47 -14 97 0 135 38 l26 26 0 -32 0 -31 61 0 c60 0 60 0 57 28 -2 19 -9
28 -25 30 -22 3 -23 7 -23 123 l0 119 -60 0 -60 0 0 -30 c0 -25 4 -30 25 -30
24 0 25 -3 25 -61 0 -54 -3 -64 -29 -90 -21 -21 -39 -29 -65 -29 -58 0 -66 17
-66 136 l0 104 -60 0 -60 0 0 -30z"/>
<path d="M4210 2621 c0 -5 8 -11 17 -13 15 -3 18 -17 19 -91 2 -79 1 -88 -14
-81 -10 4 -34 9 -54 12 -51 6 -98 -39 -98 -93 0 -52 44 -95 97 -95 22 0 45 6
52 13 11 10 14 10 18 0 7 -19 63 -17 63 2 0 8 -7 15 -15 15 -13 0 -15 26 -15
170 l0 170 -35 0 c-19 0 -35 -4 -35 -9z m12 -218 c22 -20 23 -70 1 -95 -9 -10
-30 -18 -49 -18 -57 0 -85 69 -44 110 24 24 67 26 92 3z"/>
<path d="M2908 2608 c-8 -26 -2 -102 9 -105 13 -5 23 29 23 80 0 25 -4 37 -14
37 -8 0 -16 -6 -18 -12z"/>
<path d="M2080 2595 c0 -8 7 -15 15 -15 13 0 15 -23 15 -145 0 -122 -2 -145
-15 -145 -8 0 -15 -7 -15 -15 0 -13 21 -15 126 -15 l125 0 -3 37 c-3 42 -28
59 -28 19 0 -26 -1 -26 -80 -26 l-80 0 0 145 c0 138 1 145 20 145 11 0 20 7
20 15 0 11 -12 15 -50 15 -38 0 -50 -4 -50 -15z"/>
<path d="M3523 2585 c-111 -67 -109 -239 5 -303 43 -24 119 -30 153 -12 36 20
19 27 -49 22 -63 -4 -70 -2 -100 23 -63 53 -80 130 -42 193 30 49 76 73 135
70 44 -3 50 -6 53 -26 4 -30 26 -23 30 9 6 53 -111 68 -185 24z"/>
<path d="M4870 2595 c0 -9 9 -15 23 -15 17 0 33 -19 75 -91 45 -79 52 -97 52
-145 0 -41 -4 -54 -15 -54 -8 0 -15 -7 -15 -15 0 -12 13 -15 55 -15 42 0 55 3
55 15 0 8 -9 15 -20 15 -17 0 -20 7 -20 51 0 44 8 64 55 145 46 78 60 94 80
94 16 0 25 6 25 15 0 12 -13 15 -55 15 -41 0 -55 -4 -55 -14 0 -8 4 -16 10
-18 5 -1 -9 -36 -32 -76 -23 -40 -46 -68 -50 -64 -5 5 -26 39 -48 75 -27 47
-34 67 -24 67 8 0 14 7 14 15 0 12 -13 15 -55 15 -42 0 -55 -3 -55 -15z"/>
<path d="M6340 2595 c0 -8 6 -15 13 -15 11 0 14 -30 14 -145 0 -115 -3 -145
-14 -145 -7 0 -13 -7 -13 -15 0 -26 125 -20 180 8 107 53 129 180 49 272 -36
40 -80 55 -166 55 -49 0 -63 -3 -63 -15z m169 -33 c53 -26 75 -64 75 -125 0
-87 -61 -147 -148 -147 l-36 0 0 145 0 145 38 0 c20 0 52 -8 71 -18z"/>
<path d="M2730 2510 c0 -53 -2 -60 -20 -60 -11 0 -20 -7 -20 -15 0 -8 9 -15
20 -15 18 0 20 -7 20 -80 l0 -80 35 0 c24 0 35 5 35 15 0 8 -9 15 -20 15 -18
0 -20 7 -20 65 0 63 1 65 25 65 16 0 25 6 25 15 0 9 -9 15 -25 15 -24 0 -25 3
-25 60 0 47 -3 60 -15 60 -12 0 -15 -13 -15 -60z"/>
<path d="M2449 2421 c-76 -77 17 -202 112 -150 31 16 14 27 -34 22 -31 -4 -46
-1 -56 10 -14 17 2 27 92 56 44 15 46 29 11 65 -37 37 -86 35 -125 -3z m100
-15 c11 -14 8 -16 -86 -53 -20 -8 -15 25 7 47 23 23 62 26 79 6z"/>
<path d="M3055 2430 c-26 -29 -13 -65 32 -87 47 -23 50 -47 6 -51 -25 -2 -33
1 -33 12 0 19 -16 21 -23 4 -17 -49 78 -70 109 -23 22 33 10 62 -34 83 -41 19
-49 45 -14 50 15 2 22 -2 22 -12 0 -9 7 -16 15 -16 20 0 20 46 -1 54 -30 11
-61 6 -79 -14z"/>
<path d="M3829 2421 c-21 -22 -29 -39 -29 -66 0 -52 44 -95 97 -95 49 0 78 21
93 65 31 95 -89 167 -161 96z m109 -17 c15 -10 22 -25 22 -46 0 -42 -25 -68
-66 -68 -57 0 -85 69 -44 110 24 24 57 26 88 4z"/>
<path d="M4429 2421 c-76 -77 17 -202 112 -150 31 16 14 27 -34 22 -31 -4 -46
-1 -56 10 -14 17 2 27 92 56 44 15 46 29 11 65 -37 37 -86 35 -125 -3z m100
-15 c11 -14 8 -16 -86 -53 -20 -8 -15 25 7 47 23 23 62 26 79 6z"/>
<path d="M5329 2421 c-21 -22 -29 -39 -29 -66 0 -52 44 -95 97 -95 49 0 78 21
93 65 31 95 -89 167 -161 96z m109 -17 c15 -10 22 -25 22 -46 0 -42 -25 -68
-66 -68 -57 0 -85 69 -44 110 24 24 57 26 88 4z"/>
<path d="M5580 2435 c0 -8 7 -15 15 -15 12 0 15 -13 15 -58 0 -73 18 -102 64
-102 19 0 45 9 60 21 l26 20 0 -20 c0 -17 6 -21 30 -21 20 0 30 5 30 15 0 8
-7 15 -15 15 -11 0 -15 18 -17 78 l-3 77 -32 3 c-38 4 -47 -22 -12 -31 19 -5
21 -11 16 -47 -7 -51 -31 -80 -68 -80 -37 0 -49 24 -49 99 l0 61 -30 0 c-20 0
-30 -5 -30 -15z"/>
<path d="M5910 2436 c0 -7 9 -16 20 -19 17 -4 20 -14 20 -66 0 -54 -2 -61 -20
-61 -11 0 -20 -7 -20 -15 0 -11 12 -15 50 -15 38 0 50 4 50 15 0 8 -7 15 -16
15 -12 0 -14 10 -12 53 3 48 6 53 35 67 18 8 33 21 33 28 0 17 -14 15 -43 -8
-14 -11 -28 -20 -31 -20 -3 0 -6 9 -6 20 0 16 -7 20 -30 20 -19 0 -30 -5 -30
-14z"/>
<path d="M6710 2436 c0 -7 9 -16 20 -19 17 -4 20 -14 20 -66 0 -54 -2 -61 -20
-61 -11 0 -20 -7 -20 -15 0 -11 12 -15 50 -15 38 0 50 4 50 15 0 8 -7 15 -16
15 -12 0 -14 10 -12 53 3 48 6 53 35 67 18 8 33 21 33 28 0 17 -14 15 -43 -8
-14 -11 -28 -20 -31 -20 -3 0 -6 9 -6 20 0 16 -7 20 -30 20 -19 0 -30 -5 -30
-14z"/>
<path d="M6969 2421 c-76 -77 17 -202 112 -150 31 16 14 27 -34 22 -31 -4 -46
-1 -56 10 -14 17 2 27 92 56 44 15 46 29 11 65 -37 37 -86 35 -125 -3z m100
-15 c11 -14 8 -16 -86 -53 -20 -8 -15 25 7 47 23 23 62 26 79 6z"/>
<path d="M7239 2421 c-21 -22 -29 -39 -29 -66 0 -52 44 -95 97 -95 22 0 45 6
52 13 11 10 14 10 18 0 7 -19 63 -17 63 2 0 8 -7 15 -15 15 -11 0 -15 18 -17
77 -2 50 -7 78 -15 81 -7 2 -13 -4 -13 -13 0 -15 -2 -15 -22 -1 -36 26 -85 20
-119 -13z m113 -18 c22 -20 23 -70 1 -95 -9 -10 -30 -18 -49 -18 -57 0 -85 69
-44 110 24 24 67 26 92 3z"/>
<path d="M7530 2436 c0 -7 9 -16 20 -19 17 -4 20 -14 20 -66 0 -54 -2 -61 -20
-61 -11 0 -20 -7 -20 -15 0 -11 12 -15 50 -15 38 0 50 4 50 15 0 8 -7 15 -15
15 -11 0 -15 12 -15 49 0 40 4 53 22 65 27 19 59 21 76 4 7 -7 12 -36 12 -65
0 -46 -3 -53 -20 -53 -11 0 -20 -7 -20 -15 0 -11 12 -15 50 -15 38 0 50 4 50
15 0 8 -7 15 -15 15 -11 0 -15 12 -15 45 0 49 27 85 65 85 33 0 45 -20 45 -77
0 -46 -3 -53 -20 -53 -11 0 -20 -7 -20 -15 0 -12 13 -15 55 -15 42 0 55 3 55
15 0 8 -9 15 -20 15 -18 0 -20 7 -20 64 0 73 -14 96 -59 96 -16 0 -40 -9 -53
-20 -25 -19 -26 -19 -43 0 -10 11 -28 20 -41 20 -28 0 -74 -20 -74 -32 0 -4
-4 -8 -10 -8 -5 0 -10 9 -10 20 0 16 -7 20 -30 20 -19 0 -30 -5 -30 -14z"/>
</g>
</svg>
